# MagicaVoxel @ Ephtracy

# group
o 

# material
mtllib doctor-5.mtl
usemtl palette

# normals
vn -1 0 0
vn 1 0 0
vn 0 0 1
vn 0 0 -1
vn 0 -1 0
vn 0 1 0

# texcoords
vt 0.0292969 0.5
vt 0.306641 0.5
vt 0.525391 0.5
vt 0.958984 0.5
vt 0.962891 0.5
vt 0.986328 0.5
vt 0.990234 0.5

# verts
v -2.1 0.5 2
v -2.1 0.5 1.5
v -2.1 0.7 1.6
v -2.1 0.7 1.5
v -2.1 1 2
v -2.1 1 1.6
v -2 0 1.7
v -2 0 1.6
v -2 0.1 1.9
v -2 0.1 1.7
v -2 0.5 1.9
v -2 0.5 1.6
v -2 0.5 1.5
v -2 0.5 1.4
v -2 0.7 1.6
v -2 0.7 1.5
v -2 0.7 1.4
v -2 1 2
v -2 1 1.6
v -2 1.3 2
v -2 1.3 1.5
v -2 1.7 1.9
v -2 1.7 1.5
v -2 2.3 1.6
v -2 2.3 1.5
v -2 2.5 1.9
v -2 2.5 1.6
v -1.9 0.4 1.6
v -1.9 0.4 1.5
v -1.9 0.5 1.6
v -1.9 0.5 1.5
v -1.9 0.5 1.4
v -1.9 0.5 1.3
v -1.9 0.7 1.5
v -1.9 0.7 1.4
v -1.9 0.7 1.3
v -1.9 0.9 1.5
v -1.9 0.9 1.4
v -1.9 1.4 1.9
v -1.9 1.4 1.5
v -1.9 1.7 1.9
v -1.9 1.7 1.5
v -1.9 1.9 2
v -1.9 1.9 1.9
v -1.9 2 2.1
v -1.9 2 2
v -1.9 2.3 2.1
v -1.9 2.3 2
v -1.9 2.3 1.6
v -1.9 2.3 1.5
v -1.9 2.5 1.9
v -1.9 2.5 1.7
v -1.9 2.5 1.6
v -1.9 2.5 1.5
v -1.9 2.6 2
v -1.9 2.6 1.9
v -1.9 2.6 1.7
v -1.8 0.4 1.5
v -1.8 0.4 1.4
v -1.8 0.5 1.5
v -1.8 0.5 1.4
v -1.8 1.3 2
v -1.8 1.3 1.5
v -1.8 1.4 1.9
v -1.8 1.4 1.5
v -1.8 1.5 2
v -1.8 1.5 1.9
v -1.8 1.8 2
v -1.8 1.8 1.9
v -1.8 1.9 2.1
v -1.8 1.9 2
v -1.8 1.9 1.9
v -1.8 2 2.1
v -1.8 2 2
v -1.8 2.3 2.1
v -1.8 2.3 2
v -1.8 2.4 2.1
v -1.8 2.4 2
v -1.8 2.5 1.7
v -1.8 2.5 1.5
v -1.8 2.6 1.7
v -1.8 2.6 1.5
v -1.7 0.9 1.5
v -1.7 0.9 1.4
v -1.7 1 1.5
v -1.7 1 1.4
v -1.7 1.5 2
v -1.7 1.5 1.9
v -1.7 1.8 2
v -1.7 1.8 1.9
v -1.4 2 2.1
v -1.4 2 2
v -1.4 2.3 2.1
v -1.4 2.3 2
v -1.3 0.7 2
v -1.3 0.7 1.9
v -1.3 0.8 2
v -1.3 0.8 1.9
v -1.3 1.9 2.1
v -1.3 1.9 2
v -1.3 2 2.1
v -1.3 2 2
v -1.3 2.3 2.1
v -1.3 2.3 2
v -1.3 2.4 2.1
v -1.3 2.4 2
v -1.3 2.4 1.9
v -1.3 2.6 2
v -1.3 2.6 1.9
v -1.2 0 1.8
v -1.2 0 1.7
v -1.2 0.1 1.8
v -1.2 0.2 1.8
v -1.2 0.2 1.7
v -1.2 0.6 2
v -1.2 0.6 1.9
v -1.2 0.7 2
v -1.2 0.7 1.9
v -1.1 0 1.9
v -1.1 0 1.8
v -1.1 0.1 1.9
v -1.1 0.1 1.8
v -1.1 0.5 2
v -1.1 0.5 1.9
v -1.1 0.6 2
v -1.1 0.6 1.9
v -1.8 0.5 2
v -1.8 0.5 1.9
v -1.8 0.6 2
v -1.8 0.6 1.9
v -1.7 0.1 1.8
v -1.7 0.1 1.7
v -1.7 0.2 1.8
v -1.7 0.2 1.7
v -1.7 0.6 2
v -1.7 0.6 1.9
v -1.7 0.7 2
v -1.7 0.7 1.9
v -1.6 0.7 2
v -1.6 0.7 1.9
v -1.6 0.8 2
v -1.6 0.8 1.9
v -1.6 1.9 2.1
v -1.6 1.9 2
v -1.6 2 2.1
v -1.6 2 2
v -1.6 2.3 2.1
v -1.6 2.3 2
v -1.6 2.4 2.1
v -1.6 2.4 2
v -1.6 2.4 1.9
v -1.6 2.6 2
v -1.6 2.6 1.9
v -1.5 2 2.1
v -1.5 2 2
v -1.5 2.3 2.1
v -1.5 2.3 2
v -1.2 0.9 1.5
v -1.2 0.9 1.4
v -1.2 1 1.5
v -1.2 1 1.4
v -1.2 1.5 2
v -1.2 1.5 1.9
v -1.2 1.8 2
v -1.2 1.8 1.9
v -1.1 0.4 1.5
v -1.1 0.4 1.4
v -1.1 0.5 1.5
v -1.1 0.5 1.4
v -1.1 1.3 2
v -1.1 1.3 1.9
v -1.1 1.3 1.6
v -1.1 1.3 1.5
v -1.1 1.4 1.9
v -1.1 1.4 1.5
v -1.1 1.5 2
v -1.1 1.5 1.9
v -1.1 1.8 2
v -1.1 1.8 1.9
v -1.1 1.9 2.1
v -1.1 1.9 2
v -1.1 1.9 1.9
v -1.1 2 2.1
v -1.1 2 2
v -1.1 2.3 2.1
v -1.1 2.3 2
v -1.1 2.4 2.1
v -1.1 2.4 2
v -1.1 2.5 1.7
v -1.1 2.5 1.6
v -1.1 2.5 1.5
v -1.1 2.6 1.7
v -1.1 2.6 1.5
v -1 0.4 1.6
v -1 0.4 1.5
v -1 0.5 1.6
v -1 0.5 1.5
v -1 0.5 1.4
v -1 0.5 1.3
v -1 0.7 1.5
v -1 0.7 1.4
v -1 0.7 1.3
v -1 0.9 1.5
v -1 0.9 1.4
v -1 1.4 1.9
v -1 1.4 1.5
v -1 1.7 1.9
v -1 1.7 1.5
v -1 1.9 2
v -1 1.9 1.9
v -1 2 2.1
v -1 2 2
v -1 2.3 2.1
v -1 2.3 2
v -1 2.5 1.9
v -1 2.5 1.8
v -1 2.5 1.7
v -1 2.6 2
v -1 2.6 1.7
v -0.9 0 1.9
v -0.9 0 1.6
v -0.9 0.5 1.9
v -0.9 0.5 1.6
v -0.9 0.5 1.5
v -0.9 0.5 1.4
v -0.9 0.7 1.5
v -0.9 0.7 1.4
v -0.9 0.9 2
v -0.9 0.9 1.5
v -0.9 1.3 2
v -0.9 1.3 1.5
v -0.9 1.7 1.9
v -0.9 1.7 1.5
v -0.9 2.1 1.8
v -0.9 2.1 1.6
v -0.9 2.1 1.5
v -0.9 2.4 1.6
v -0.9 2.4 1.5
v -0.9 2.5 1.9
v -0.9 2.5 1.8
v -0.9 2.5 1.6
v -0.9 2.5 1.5
v -0.8 0.5 2
v -0.8 0.5 1.5
v -0.8 0.9 2
v -0.8 0.9 1.5
v -0.8 2.1 1.6
v -0.8 2.1 1.5
v -0.8 2.4 1.6
v -0.8 2.4 1.5
v -1.9 2 2.1
v -1.9 2.3 2.1
v -1.8 1.9 2.1
v -1.8 2 2.1
v -1.8 2.3 2.1
v -1.8 2.4 2.1
v -1.6 1.9 2.1
v -1.6 2 2.1
v -1.6 2.3 2.1
v -1.6 2.4 2.1
v -1.5 2 2.1
v -1.5 2.3 2.1
v -1.4 2 2.1
v -1.4 2.3 2.1
v -1.3 1.9 2.1
v -1.3 2 2.1
v -1.3 2.3 2.1
v -1.3 2.4 2.1
v -1.1 1.9 2.1
v -1.1 2 2.1
v -1.1 2.3 2.1
v -1.1 2.4 2.1
v -1 2 2.1
v -1 2.3 2.1
v -2.1 0.5 2
v -2.1 1 2
v -2 1 2
v -2 1.3 2
v -1.9 1.9 2
v -1.9 2 2
v -1.9 2.3 2
v -1.9 2.6 2
v -1.8 0.5 2
v -1.8 0.6 2
v -1.8 1.3 2
v -1.8 1.5 2
v -1.8 1.8 2
v -1.8 1.9 2
v -1.8 2 2
v -1.8 2.3 2
v -1.8 2.4 2
v -1.7 0.6 2
v -1.7 0.7 2
v -1.7 1.5 2
v -1.7 1.8 2
v -1.6 0.7 2
v -1.6 0.8 2
v -1.6 0.9 2
v -1.6 1.9 2
v -1.6 2 2
v -1.6 2.3 2
v -1.6 2.4 2
v -1.6 2.6 2
v -1.5 2 2
v -1.5 2.3 2
v -1.4 2 2
v -1.4 2.3 2
v -1.3 0.7 2
v -1.3 0.8 2
v -1.3 0.9 2
v -1.3 1.9 2
v -1.3 2 2
v -1.3 2.3 2
v -1.3 2.4 2
v -1.3 2.6 2
v -1.2 0.6 2
v -1.2 0.7 2
v -1.2 1.5 2
v -1.2 1.8 2
v -1.1 0.5 2
v -1.1 0.6 2
v -1.1 1.3 2
v -1.1 1.5 2
v -1.1 1.8 2
v -1.1 1.9 2
v -1.1 2 2
v -1.1 2.3 2
v -1.1 2.4 2
v -1 1.9 2
v -1 2 2
v -1 2.3 2
v -1 2.6 2
v -0.9 0.9 2
v -0.9 1.3 2
v -0.8 0.5 2
v -0.8 0.9 2
v -2 0.1 1.9
v -2 0.5 1.9
v -2 1.7 1.9
v -2 2.5 1.9
v -1.9 1.4 1.9
v -1.9 1.7 1.9
v -1.9 1.9 1.9
v -1.9 2.5 1.9
v -1.8 0.5 1.9
v -1.8 0.6 1.9
v -1.8 1.4 1.9
v -1.8 1.5 1.9
v -1.8 1.8 1.9
v -1.8 1.9 1.9
v -1.7 0.6 1.9
v -1.7 0.7 1.9
v -1.7 1.5 1.9
v -1.7 1.8 1.9
v -1.6 0.7 1.9
v -1.6 0.8 1.9
v -1.6 2.4 1.9
v -1.6 2.6 1.9
v -1.3 0.7 1.9
v -1.3 0.8 1.9
v -1.3 2.4 1.9
v -1.3 2.6 1.9
v -1.2 0.6 1.9
v -1.2 0.7 1.9
v -1.2 1.5 1.9
v -1.2 1.8 1.9
v -1.1 0 1.9
v -1.1 0.1 1.9
v -1.1 0.5 1.9
v -1.1 0.6 1.9
v -1.1 1.4 1.9
v -1.1 1.5 1.9
v -1.1 1.8 1.9
v -1.1 1.9 1.9
v -1 1.4 1.9
v -1 1.7 1.9
v -1 1.9 1.9
v -1 2.5 1.9
v -0.9 0 1.9
v -0.9 0.5 1.9
v -0.9 1.7 1.9
v -0.9 2.5 1.9
v -1.2 0 1.8
v -1.2 0.1 1.8
v -1.1 0 1.8
v -1.1 0.1 1.8
v -2 0 1.7
v -2 0.1 1.7
v -1.9 0.1 1.7
v -1.8 0.1 1.7
v -1.7 0.1 1.7
v -1.7 0.2 1.7
v -1.2 0 1.7
v -1.2 0.2 1.7
v -0.9 2.1 1.6
v -0.9 2.4 1.6
v -0.8 2.1 1.6
v -0.8 2.4 1.6
v -1.7 0.1 1.8
v -1.7 0.2 1.8
v -1.2 0.1 1.8
v -1.2 0.2 1.8
v -1.9 2.5 1.7
v -1.9 2.6 1.7
v -1.8 2.5 1.7
v -1.8 2.6 1.7
v -1.1 2.5 1.7
v -1.1 2.6 1.7
v -1 2.5 1.7
v -1 2.6 1.7
v -2.1 0.7 1.6
v -2.1 1 1.6
v -2 0 1.6
v -2 0.5 1.6
v -2 0.7 1.6
v -2 1 1.6
v -2 2.3 1.6
v -2 2.5 1.6
v -1.9 0.4 1.6
v -1.9 0.5 1.6
v -1.9 2.3 1.6
v -1.9 2.5 1.6
v -1 0.4 1.6
v -1 0.5 1.6
v -0.9 0 1.6
v -0.9 0.5 1.6
v -2.1 0.5 1.5
v -2.1 0.7 1.5
v -2 0.5 1.5
v -2 0.7 1.5
v -2 1.3 1.5
v -2 1.7 1.5
v -2 2.3 1.5
v -1.9 0.4 1.5
v -1.9 0.5 1.5
v -1.9 0.7 1.5
v -1.9 0.9 1.5
v -1.9 1.4 1.5
v -1.9 1.7 1.5
v -1.9 2.3 1.5
v -1.9 2.5 1.5
v -1.8 0.4 1.5
v -1.8 0.5 1.5
v -1.8 1.3 1.5
v -1.8 1.4 1.5
v -1.8 2.5 1.5
v -1.8 2.6 1.5
v -1.7 0.9 1.5
v -1.7 1 1.5
v -1.2 0.9 1.5
v -1.2 1 1.5
v -1.1 0.4 1.5
v -1.1 0.5 1.5
v -1.1 1.3 1.5
v -1.1 1.4 1.5
v -1.1 2.5 1.5
v -1.1 2.6 1.5
v -1 0.4 1.5
v -1 0.5 1.5
v -1 0.7 1.5
v -1 0.9 1.5
v -1 1.4 1.5
v -1 1.7 1.5
v -0.9 0.5 1.5
v -0.9 0.7 1.5
v -0.9 0.9 1.5
v -0.9 1.3 1.5
v -0.9 1.7 1.5
v -0.9 2.1 1.5
v -0.9 2.4 1.5
v -0.9 2.5 1.5
v -0.8 0.5 1.5
v -0.8 0.9 1.5
v -0.8 2.1 1.5
v -0.8 2.4 1.5
v -2 0.5 1.4
v -2 0.7 1.4
v -1.9 0.5 1.4
v -1.9 0.7 1.4
v -1.9 0.9 1.4
v -1.8 0.4 1.4
v -1.8 0.5 1.4
v -1.7 0.9 1.4
v -1.7 1 1.4
v -1.2 0.9 1.4
v -1.2 1 1.4
v -1.1 0.4 1.4
v -1.1 0.5 1.4
v -1 0.5 1.4
v -1 0.7 1.4
v -1 0.9 1.4
v -0.9 0.5 1.4
v -0.9 0.7 1.4
v -1.9 0.5 1.3
v -1.9 0.7 1.3
v -1 0.5 1.3
v -1 0.7 1.3
v -1.1 0 1.9
v -0.9 0 1.9
v -1.2 0 1.8
v -1.1 0 1.8
v -1 0 1.8
v -2 0 1.7
v -1.2 0 1.7
v -1.1 0 1.7
v -1 0 1.7
v -2 0 1.6
v -0.9 0 1.6
v -2 0.1 1.9
v -1.1 0.1 1.9
v -1.9 0.1 1.8
v -1.8 0.1 1.8
v -1.7 0.1 1.8
v -1.2 0.1 1.8
v -1.1 0.1 1.8
v -2 0.1 1.7
v -1.9 0.1 1.7
v -1.8 0.1 1.7
v -1.7 0.1 1.7
v -1.7 0.2 1.8
v -1.2 0.2 1.8
v -1.7 0.2 1.7
v -1.2 0.2 1.7
v -1.9 0.4 1.6
v -1 0.4 1.6
v -1.9 0.4 1.5
v -1.8 0.4 1.5
v -1.1 0.4 1.5
v -1 0.4 1.5
v -1.8 0.4 1.4
v -1.1 0.4 1.4
v -2.1 0.5 2
v -1.8 0.5 2
v -1.1 0.5 2
v -0.8 0.5 2
v -2 0.5 1.9
v -1.8 0.5 1.9
v -1.1 0.5 1.9
v -0.9 0.5 1.9
v -2 0.5 1.6
v -1.9 0.5 1.6
v -1 0.5 1.6
v -0.9 0.5 1.6
v -2.1 0.5 1.5
v -2 0.5 1.5
v -1.9 0.5 1.5
v -1.8 0.5 1.5
v -1.1 0.5 1.5
v -1 0.5 1.5
v -0.9 0.5 1.5
v -0.8 0.5 1.5
v -2 0.5 1.4
v -1.9 0.5 1.4
v -1.8 0.5 1.4
v -1.1 0.5 1.4
v -1 0.5 1.4
v -0.9 0.5 1.4
v -1.9 0.5 1.3
v -1 0.5 1.3
v -1.8 0.6 2
v -1.7 0.6 2
v -1.2 0.6 2
v -1.1 0.6 2
v -1.8 0.6 1.9
v -1.7 0.6 1.9
v -1.2 0.6 1.9
v -1.1 0.6 1.9
v -1.7 0.7 2
v -1.6 0.7 2
v -1.3 0.7 2
v -1.2 0.7 2
v -1.7 0.7 1.9
v -1.6 0.7 1.9
v -1.3 0.7 1.9
v -1.2 0.7 1.9
v -1.6 0.8 2
v -1.3 0.8 2
v -1.6 0.8 1.9
v -1.3 0.8 1.9
v -1.9 1.4 1.9
v -1.8 1.4 1.9
v -1.1 1.4 1.9
v -1 1.4 1.9
v -1.9 1.4 1.5
v -1.8 1.4 1.5
v -1.1 1.4 1.5
v -1 1.4 1.5
v -2 1.7 1.9
v -1.9 1.7 1.9
v -1 1.7 1.9
v -0.9 1.7 1.9
v -2 1.7 1.5
v -1.9 1.7 1.5
v -1 1.7 1.5
v -0.9 1.7 1.5
v -1.8 1.8 2
v -1.7 1.8 2
v -1.2 1.8 2
v -1.1 1.8 2
v -1.8 1.8 1.9
v -1.7 1.8 1.9
v -1.2 1.8 1.9
v -1.1 1.8 1.9
v -1.8 1.9 2.1
v -1.6 1.9 2.1
v -1.3 1.9 2.1
v -1.1 1.9 2.1
v -1.9 1.9 2
v -1.8 1.9 2
v -1.6 1.9 2
v -1.3 1.9 2
v -1.1 1.9 2
v -1 1.9 2
v -1.9 1.9 1.9
v -1.8 1.9 1.9
v -1.1 1.9 1.9
v -1 1.9 1.9
v -1.9 2 2.1
v -1.8 2 2.1
v -1.6 2 2.1
v -1.5 2 2.1
v -1.4 2 2.1
v -1.3 2 2.1
v -1.1 2 2.1
v -1 2 2.1
v -1.9 2 2
v -1.8 2 2
v -1.6 2 2
v -1.5 2 2
v -1.4 2 2
v -1.3 2 2
v -1.1 2 2
v -1 2 2
v -0.9 2.1 1.6
v -0.8 2.1 1.6
v -0.9 2.1 1.5
v -0.8 2.1 1.5
v -2.1 0.7 1.6
v -2 0.7 1.6
v -2.1 0.7 1.5
v -2 0.7 1.5
v -1.9 0.7 1.5
v -1 0.7 1.5
v -0.9 0.7 1.5
v -2 0.7 1.4
v -1.9 0.7 1.4
v -1 0.7 1.4
v -0.9 0.7 1.4
v -1.9 0.7 1.3
v -1 0.7 1.3
v -0.9 0.9 2
v -0.8 0.9 2
v -1.9 0.9 1.5
v -1.7 0.9 1.5
v -1.2 0.9 1.5
v -1 0.9 1.5
v -0.9 0.9 1.5
v -0.8 0.9 1.5
v -1.9 0.9 1.4
v -1.7 0.9 1.4
v -1.2 0.9 1.4
v -1 0.9 1.4
v -2.1 1 2
v -2 1 2
v -2.1 1 1.6
v -2 1 1.6
v -1.7 1 1.5
v -1.2 1 1.5
v -1.7 1 1.4
v -1.2 1 1.4
v -2 1.3 2
v -1.8 1.3 2
v -1.1 1.3 2
v -0.9 1.3 2
v -1.1 1.3 1.9
v -1 1.3 1.9
v -1.1 1.3 1.6
v -1 1.3 1.6
v -2 1.3 1.5
v -1.8 1.3 1.5
v -1.1 1.3 1.5
v -0.9 1.3 1.5
v -1.8 1.5 2
v -1.7 1.5 2
v -1.2 1.5 2
v -1.1 1.5 2
v -1.8 1.5 1.9
v -1.7 1.5 1.9
v -1.2 1.5 1.9
v -1.1 1.5 1.9
v -1.9 2.3 2.1
v -1.8 2.3 2.1
v -1.6 2.3 2.1
v -1.5 2.3 2.1
v -1.4 2.3 2.1
v -1.3 2.3 2.1
v -1.1 2.3 2.1
v -1 2.3 2.1
v -1.9 2.3 2
v -1.8 2.3 2
v -1.6 2.3 2
v -1.5 2.3 2
v -1.4 2.3 2
v -1.3 2.3 2
v -1.1 2.3 2
v -1 2.3 2
v -2 2.3 1.6
v -1.9 2.3 1.6
v -2 2.3 1.5
v -1.9 2.3 1.5
v -1.8 2.4 2.1
v -1.6 2.4 2.1
v -1.3 2.4 2.1
v -1.1 2.4 2.1
v -1.8 2.4 2
v -1.6 2.4 2
v -1.3 2.4 2
v -1.1 2.4 2
v -1.6 2.4 1.9
v -1.3 2.4 1.9
v -0.9 2.4 1.6
v -0.8 2.4 1.6
v -0.9 2.4 1.5
v -0.8 2.4 1.5
v -2 2.5 1.9
v -1.9 2.5 1.9
v -1 2.5 1.9
v -0.9 2.5 1.9
v -1 2.5 1.8
v -0.9 2.5 1.8
v -1.9 2.5 1.7
v -1.8 2.5 1.7
v -1.1 2.5 1.7
v -1 2.5 1.7
v -2 2.5 1.6
v -1.9 2.5 1.6
v -1.1 2.5 1.6
v -0.9 2.5 1.6
v -1.9 2.5 1.5
v -1.8 2.5 1.5
v -1.1 2.5 1.5
v -0.9 2.5 1.5
v -1.9 2.6 2
v -1.6 2.6 2
v -1.3 2.6 2
v -1 2.6 2
v -1.9 2.6 1.9
v -1.8 2.6 1.9
v -1.7 2.6 1.9
v -1.6 2.6 1.9
v -1.3 2.6 1.9
v -1.1 2.6 1.9
v -1.6 2.6 1.8
v -1.3 2.6 1.8
v -1.9 2.6 1.7
v -1.8 2.6 1.7
v -1.2 2.6 1.7
v -1.1 2.6 1.7
v -1 2.6 1.7
v -1.7 2.6 1.6
v -1.2 2.6 1.6
v -1.8 2.6 1.5
v -1.1 2.6 1.5

# faces
f 3/4/1 2/4/1 1/4/1
f 4/4/1 2/4/1 3/4/1
f 5/4/1 3/4/1 1/4/1
f 6/4/1 3/4/1 5/4/1
f 10/6/1 8/6/1 7/6/1
f 11/6/1 10/6/1 9/6/1
f 12/6/1 8/6/1 10/6/1
f 12/6/1 10/6/1 11/6/1
f 16/4/1 14/4/1 13/4/1
f 17/4/1 14/4/1 16/4/1
f 19/4/1 16/4/1 15/4/1
f 20/4/1 19/4/1 18/4/1
f 21/4/1 16/4/1 19/4/1
f 21/4/1 19/4/1 20/4/1
f 24/4/1 23/4/1 22/4/1
f 25/4/1 23/4/1 24/4/1
f 26/4/1 24/4/1 22/4/1
f 27/4/1 24/4/1 26/4/1
f 30/6/1 29/6/1 28/6/1
f 31/6/1 29/6/1 30/6/1
f 35/4/1 33/4/1 32/4/1
f 36/4/1 33/4/1 35/4/1
f 37/4/1 35/4/1 34/4/1
f 38/4/1 35/4/1 37/4/1
f 41/4/1 40/4/1 39/4/1
f 42/4/1 40/4/1 41/4/1
f 46/4/1 44/4/1 43/4/1
f 47/4/1 46/4/1 45/4/1
f 48/4/1 44/4/1 46/4/1
f 48/4/1 46/4/1 47/4/1
f 51/4/1 44/4/1 48/4/1
f 53/4/1 50/4/1 49/4/1
f 54/4/1 50/4/1 53/4/1
f 55/4/1 51/4/1 48/4/1
f 56/5/1 52/5/1 51/5/1
f 56/4/1 51/4/1 55/4/1
f 57/5/1 52/5/1 56/5/1
f 60/6/1 59/6/1 58/6/1
f 61/6/1 59/6/1 60/6/1
f 64/4/1 63/4/1 62/4/1
f 65/4/1 63/4/1 64/4/1
f 66/4/1 64/4/1 62/4/1
f 67/4/1 64/4/1 66/4/1
f 71/4/1 69/4/1 68/4/1
f 72/4/1 69/4/1 71/4/1
f 73/4/1 71/4/1 70/4/1
f 74/4/1 71/4/1 73/4/1
f 77/4/1 76/4/1 75/4/1
f 78/4/1 76/4/1 77/4/1
f 81/4/1 80/4/1 79/4/1
f 82/4/1 80/4/1 81/4/1
f 85/4/1 84/4/1 83/4/1
f 86/4/1 84/4/1 85/4/1
f 89/4/1 88/4/1 87/4/1
f 90/4/1 88/4/1 89/4/1
f 93/3/1 92/3/1 91/3/1
f 94/3/1 92/3/1 93/3/1
f 97/4/1 96/4/1 95/4/1
f 98/4/1 96/4/1 97/4/1
f 101/4/1 100/4/1 99/4/1
f 102/4/1 100/4/1 101/4/1
f 105/4/1 104/4/1 103/4/1
f 106/4/1 104/4/1 105/4/1
f 108/4/1 107/4/1 106/4/1
f 109/4/1 107/4/1 108/4/1
f 112/1/1 111/1/1 110/1/1
f 113/1/1 111/1/1 112/1/1
f 114/1/1 111/1/1 113/1/1
f 117/4/1 116/4/1 115/4/1
f 118/4/1 116/4/1 117/4/1
f 121/6/1 120/6/1 119/6/1
f 122/6/1 120/6/1 121/6/1
f 125/4/1 124/4/1 123/4/1
f 126/4/1 124/4/1 125/4/1
f 127/4/2 128/4/2 129/4/2
f 129/4/2 128/4/2 130/4/2
f 131/1/2 132/1/2 133/1/2
f 133/1/2 132/1/2 134/1/2
f 135/4/2 136/4/2 137/4/2
f 137/4/2 136/4/2 138/4/2
f 139/4/2 140/4/2 141/4/2
f 141/4/2 140/4/2 142/4/2
f 143/4/2 144/4/2 145/4/2
f 145/4/2 144/4/2 146/4/2
f 147/4/2 148/4/2 149/4/2
f 149/4/2 148/4/2 150/4/2
f 150/4/2 151/4/2 152/4/2
f 152/4/2 151/4/2 153/4/2
f 154/3/2 155/3/2 156/3/2
f 156/3/2 155/3/2 157/3/2
f 158/4/2 159/4/2 160/4/2
f 160/4/2 159/4/2 161/4/2
f 162/4/2 163/4/2 164/4/2
f 164/4/2 163/4/2 165/4/2
f 166/6/2 167/6/2 168/6/2
f 168/6/2 167/6/2 169/6/2
f 170/4/2 171/4/2 174/4/2
f 172/4/2 173/4/2 174/4/2
f 171/4/2 172/4/2 174/4/2
f 174/4/2 173/4/2 175/4/2
f 170/4/2 174/4/2 176/4/2
f 176/4/2 174/4/2 177/4/2
f 178/4/2 179/4/2 181/4/2
f 181/4/2 179/4/2 182/4/2
f 180/4/2 181/4/2 183/4/2
f 183/4/2 181/4/2 184/4/2
f 185/4/2 186/4/2 187/4/2
f 187/4/2 186/4/2 188/4/2
f 189/4/2 190/4/2 192/4/2
f 190/4/2 191/4/2 192/4/2
f 192/4/2 191/4/2 193/4/2
f 194/6/2 195/6/2 196/6/2
f 196/6/2 195/6/2 197/6/2
f 198/4/2 199/4/2 201/4/2
f 201/4/2 199/4/2 202/4/2
f 200/4/2 201/4/2 203/4/2
f 203/4/2 201/4/2 204/4/2
f 205/4/2 206/4/2 207/4/2
f 207/4/2 206/4/2 208/4/2
f 209/4/2 210/4/2 212/4/2
f 211/4/2 212/4/2 213/4/2
f 212/4/2 210/4/2 214/4/2
f 213/4/2 212/4/2 214/4/2
f 214/4/2 210/4/2 215/4/2
f 214/4/2 215/4/2 218/4/2
f 216/4/2 217/4/2 218/4/2
f 215/4/2 216/4/2 218/4/2
f 218/4/2 217/4/2 219/4/2
f 220/6/2 221/6/2 222/6/2
f 222/6/2 221/6/2 223/6/2
f 224/4/2 225/4/2 226/4/2
f 226/4/2 225/4/2 227/4/2
f 228/4/2 229/4/2 230/4/2
f 230/4/2 229/4/2 231/4/2
f 232/4/2 233/4/2 234/4/2
f 234/4/2 233/4/2 235/4/2
f 235/4/2 233/4/2 236/4/2
f 234/5/2 235/5/2 237/5/2
f 232/4/2 234/4/2 239/4/2
f 234/5/2 237/5/2 240/5/2
f 239/4/2 234/4/2 240/4/2
f 237/4/2 238/4/2 241/4/2
f 240/5/2 237/5/2 241/5/2
f 241/4/2 238/4/2 242/4/2
f 243/4/2 244/4/2 245/4/2
f 245/4/2 244/4/2 246/4/2
f 247/4/2 248/4/2 249/4/2
f 249/4/2 248/4/2 250/4/2
f 254/4/3 252/4/3 251/4/3
f 255/4/3 252/4/3 254/4/3
f 257/4/3 254/4/3 253/4/3
f 257/4/3 256/4/3 255/4/3
f 257/4/3 255/4/3 254/4/3
f 258/4/3 256/4/3 257/4/3
f 259/4/3 256/4/3 258/4/3
f 260/4/3 256/4/3 259/4/3
f 261/3/3 259/3/3 258/3/3
f 262/3/3 259/3/3 261/3/3
f 266/3/3 264/3/3 263/3/3
f 267/3/3 264/3/3 266/3/3
f 269/4/3 267/4/3 266/4/3
f 269/4/3 268/4/3 267/4/3
f 269/4/3 266/4/3 265/4/3
f 270/4/3 268/4/3 269/4/3
f 271/4/3 268/4/3 270/4/3
f 272/4/3 268/4/3 271/4/3
f 273/4/3 271/4/3 270/4/3
f 274/4/3 271/4/3 273/4/3
f 277/4/3 276/4/3 275/4/3
f 283/4/3 277/4/3 275/4/3
f 283/4/3 278/4/3 277/4/3
f 284/4/3 278/4/3 283/4/3
f 285/4/3 278/4/3 284/4/3
f 288/4/3 280/4/3 279/4/3
f 289/4/3 280/4/3 288/4/3
f 290/4/3 282/4/3 281/4/3
f 291/4/3 282/4/3 290/4/3
f 292/4/3 286/4/3 285/4/3
f 292/4/3 285/4/3 284/4/3
f 293/4/3 286/4/3 292/4/3
f 294/4/3 286/4/3 293/4/3
f 295/4/3 288/4/3 287/4/3
f 296/4/3 294/4/3 293/4/3
f 296/4/3 295/4/3 294/4/3
f 297/4/3 295/4/3 296/4/3
f 298/4/3 295/4/3 297/4/3
f 299/4/3 288/4/3 295/4/3
f 299/4/3 295/4/3 298/4/3
f 302/4/3 282/4/3 291/4/3
f 303/4/3 282/4/3 302/4/3
f 304/3/3 300/3/3 299/3/3
f 304/3/3 299/3/3 298/3/3
f 305/3/3 302/3/3 301/3/3
f 306/3/3 304/3/3 298/3/3
f 306/3/3 305/3/3 304/3/3
f 307/3/3 302/3/3 305/3/3
f 307/3/3 305/3/3 306/3/3
f 309/7/3 298/7/3 297/7/3
f 310/3/3 306/3/3 298/3/3
f 310/7/3 298/7/3 309/7/3
f 311/3/3 306/3/3 310/3/3
f 312/3/3 306/3/3 311/3/3
f 313/3/3 302/3/3 307/3/3
f 314/3/3 302/3/3 313/3/3
f 317/4/3 309/4/3 308/4/3
f 317/4/3 310/4/3 309/4/3
f 317/4/3 311/4/3 310/4/3
f 318/4/3 311/4/3 317/4/3
f 319/4/3 311/4/3 318/4/3
f 321/4/3 317/4/3 316/4/3
f 321/4/3 318/4/3 317/4/3
f 322/4/3 318/4/3 321/4/3
f 323/4/3 318/4/3 322/4/3
f 324/4/3 311/4/3 319/4/3
f 325/4/3 311/4/3 324/4/3
f 328/4/3 315/4/3 314/4/3
f 329/4/3 326/4/3 325/4/3
f 330/4/3 326/4/3 329/4/3
f 331/4/3 328/4/3 327/4/3
f 332/4/3 315/4/3 328/4/3
f 332/4/3 328/4/3 331/4/3
f 333/4/3 321/4/3 320/4/3
f 333/4/3 322/4/3 321/4/3
f 334/4/3 322/4/3 333/4/3
f 335/4/3 333/4/3 320/4/3
f 336/4/3 333/4/3 335/4/3
f 342/4/3 340/4/3 339/4/3
f 343/4/3 340/4/3 342/4/3
f 344/4/3 340/4/3 343/4/3
f 345/6/3 338/6/3 337/6/3
f 347/4/3 342/4/3 341/4/3
f 347/4/3 343/4/3 342/4/3
f 348/4/3 343/4/3 347/4/3
f 349/4/3 343/4/3 348/4/3
f 350/4/3 343/4/3 349/4/3
f 351/6/3 346/6/3 345/6/3
f 353/4/3 349/4/3 348/4/3
f 354/4/3 349/4/3 353/4/3
f 355/6/3 352/6/3 351/6/3
f 359/7/3 356/7/3 355/7/3
f 359/6/3 355/6/3 351/6/3
f 360/7/3 356/7/3 359/7/3
f 361/1/3 358/1/3 357/1/3
f 362/1/3 358/1/3 361/1/3
f 363/6/3 351/6/3 345/6/3
f 363/6/3 359/6/3 351/6/3
f 364/6/3 359/6/3 363/6/3
f 368/6/3 345/6/3 337/6/3
f 368/6/3 363/6/3 345/6/3
f 369/6/3 363/6/3 368/6/3
f 370/6/3 363/6/3 369/6/3
f 372/4/3 366/4/3 365/4/3
f 373/4/3 366/4/3 372/4/3
f 375/4/3 374/4/3 373/4/3
f 375/4/3 373/4/3 372/4/3
f 375/4/3 372/4/3 371/4/3
f 376/4/3 374/4/3 375/4/3
f 377/4/3 374/4/3 376/4/3
f 379/6/3 368/6/3 367/6/3
f 379/6/3 369/6/3 368/6/3
f 380/6/3 369/6/3 379/6/3
f 381/4/3 378/4/3 377/4/3
f 381/4/3 377/4/3 376/4/3
f 382/4/3 378/4/3 381/4/3
f 385/1/3 384/1/3 383/1/3
f 386/1/3 384/1/3 385/1/3
f 389/6/3 388/6/3 387/6/3
f 390/6/3 389/6/3 387/6/3
f 391/6/3 390/6/3 387/6/3
f 393/6/3 391/6/3 387/6/3
f 393/6/3 392/6/3 391/6/3
f 394/6/3 392/6/3 393/6/3
f 397/4/3 396/4/3 395/4/3
f 398/4/3 396/4/3 397/4/3
f 399/6/4 400/6/4 401/6/4
f 401/6/4 400/6/4 402/6/4
f 403/5/4 404/5/4 405/5/4
f 405/5/4 404/5/4 406/5/4
f 407/4/4 408/4/4 409/4/4
f 409/4/4 408/4/4 410/4/4
f 411/4/4 412/4/4 415/4/4
f 415/4/4 412/4/4 416/4/4
f 413/6/4 414/6/4 419/6/4
f 419/6/4 414/6/4 420/6/4
f 417/4/4 418/4/4 421/4/4
f 421/4/4 418/4/4 422/4/4
f 413/6/4 419/6/4 423/6/4
f 413/6/4 423/6/4 425/6/4
f 423/6/4 424/6/4 425/6/4
f 425/6/4 424/6/4 426/6/4
f 427/4/4 428/4/4 429/4/4
f 429/4/4 428/4/4 430/4/4
f 430/4/4 431/4/4 436/4/4
f 436/4/4 431/4/4 437/4/4
f 432/4/4 433/4/4 439/4/4
f 439/4/4 433/4/4 440/4/4
f 434/6/4 435/6/4 442/6/4
f 442/6/4 435/6/4 443/6/4
f 437/4/4 431/4/4 444/4/4
f 440/4/4 441/4/4 445/4/4
f 439/4/4 440/4/4 445/4/4
f 438/4/4 439/4/4 445/4/4
f 445/4/4 441/4/4 446/4/4
f 446/4/4 447/4/4 448/4/4
f 445/4/4 446/4/4 448/4/4
f 444/4/4 445/4/4 448/4/4
f 437/4/4 444/4/4 448/4/4
f 448/4/4 447/4/4 449/4/4
f 449/4/4 447/4/4 451/4/4
f 451/4/4 447/4/4 454/4/4
f 450/4/4 451/4/4 454/4/4
f 454/4/4 447/4/4 455/4/4
f 455/4/4 447/4/4 456/4/4
f 456/4/4 447/4/4 457/4/4
f 452/6/4 453/6/4 458/6/4
f 458/6/4 453/6/4 459/6/4
f 450/4/4 454/4/4 461/4/4
f 455/4/4 456/4/4 462/4/4
f 462/4/4 456/4/4 463/4/4
f 460/4/4 461/4/4 465/4/4
f 461/4/4 454/4/4 466/4/4
f 465/4/4 461/4/4 466/4/4
f 466/4/4 454/4/4 467/4/4
f 463/4/4 456/4/4 468/4/4
f 468/4/4 456/4/4 469/4/4
f 469/4/4 456/4/4 470/4/4
f 470/4/4 456/4/4 471/4/4
f 464/4/4 465/4/4 472/4/4
f 465/4/4 466/4/4 472/4/4
f 472/4/4 466/4/4 473/4/4
f 469/4/4 470/4/4 474/4/4
f 474/4/4 470/4/4 475/4/4
f 476/4/4 477/4/4 478/4/4
f 478/4/4 477/4/4 479/4/4
f 479/4/4 480/4/4 483/4/4
f 479/4/4 483/4/4 485/4/4
f 483/4/4 484/4/4 485/4/4
f 485/4/4 484/4/4 486/4/4
f 481/6/4 482/6/4 487/6/4
f 487/6/4 482/6/4 488/6/4
f 479/4/4 485/4/4 490/4/4
f 490/4/4 485/4/4 491/4/4
f 489/4/4 490/4/4 492/4/4
f 492/4/4 490/4/4 493/4/4
f 494/4/4 495/4/4 496/4/4
f 496/4/4 495/4/4 497/4/4
f 501/6/5 499/6/5 498/6/5
f 502/6/5 499/6/5 501/6/5
f 504/1/5 501/1/5 500/1/5
f 505/5/5 502/5/5 501/5/5
f 505/1/5 501/1/5 504/1/5
f 506/6/5 499/6/5 502/6/5
f 506/5/5 502/5/5 505/5/5
f 507/6/5 505/6/5 504/6/5
f 507/6/5 504/6/5 503/6/5
f 507/6/5 506/6/5 505/6/5
f 508/6/5 499/6/5 506/6/5
f 508/6/5 506/6/5 507/6/5
f 511/6/5 510/6/5 509/6/5
f 512/6/5 510/6/5 511/6/5
f 513/6/5 510/6/5 512/6/5
f 514/6/5 510/6/5 513/6/5
f 515/6/5 510/6/5 514/6/5
f 516/6/5 511/6/5 509/6/5
f 517/5/5 512/5/5 511/5/5
f 517/6/5 511/6/5 516/6/5
f 518/1/5 513/1/5 512/1/5
f 518/5/5 512/5/5 517/5/5
f 519/1/5 513/1/5 518/1/5
f 522/6/5 521/6/5 520/6/5
f 523/6/5 521/6/5 522/6/5
f 526/6/5 525/6/5 524/6/5
f 527/6/5 525/6/5 526/6/5
f 528/6/5 525/6/5 527/6/5
f 529/6/5 525/6/5 528/6/5
f 530/6/5 528/6/5 527/6/5
f 531/6/5 528/6/5 530/6/5
f 536/4/5 533/4/5 532/4/5
f 537/4/5 533/4/5 536/4/5
f 538/4/5 535/4/5 534/4/5
f 539/4/5 535/4/5 538/4/5
f 540/4/5 536/4/5 532/4/5
f 543/4/5 535/4/5 539/4/5
f 544/4/5 540/4/5 532/4/5
f 545/5/5 541/5/5 540/5/5
f 545/4/5 540/4/5 544/4/5
f 546/5/5 541/5/5 545/5/5
f 549/4/5 543/4/5 542/4/5
f 550/4/5 535/4/5 543/4/5
f 550/4/5 543/4/5 549/4/5
f 551/4/5 535/4/5 550/4/5
f 552/4/5 546/4/5 545/4/5
f 553/5/5 547/5/5 546/5/5
f 553/4/5 546/4/5 552/4/5
f 554/5/5 547/5/5 553/5/5
f 555/5/5 549/5/5 548/5/5
f 556/4/5 550/4/5 549/4/5
f 556/5/5 549/5/5 555/5/5
f 557/4/5 550/4/5 556/4/5
f 558/4/5 554/4/5 553/4/5
f 558/4/5 555/4/5 554/4/5
f 558/4/5 556/4/5 555/4/5
f 559/4/5 556/4/5 558/4/5
f 564/4/5 561/4/5 560/4/5
f 565/4/5 561/4/5 564/4/5
f 566/4/5 563/4/5 562/4/5
f 567/4/5 563/4/5 566/4/5
f 572/4/5 569/4/5 568/4/5
f 573/4/5 569/4/5 572/4/5
f 574/4/5 571/4/5 570/4/5
f 575/4/5 571/4/5 574/4/5
f 578/7/5 577/7/5 576/7/5
f 579/7/5 577/7/5 578/7/5
f 584/4/5 581/4/5 580/4/5
f 585/4/5 581/4/5 584/4/5
f 586/4/5 583/4/5 582/4/5
f 587/4/5 583/4/5 586/4/5
f 592/4/5 589/4/5 588/4/5
f 593/4/5 589/4/5 592/4/5
f 594/4/5 591/4/5 590/4/5
f 595/4/5 591/4/5 594/4/5
f 600/4/5 597/4/5 596/4/5
f 601/4/5 597/4/5 600/4/5
f 602/4/5 599/4/5 598/4/5
f 603/4/5 599/4/5 602/4/5
f 609/4/5 605/4/5 604/4/5
f 610/4/5 605/4/5 609/4/5
f 611/4/5 607/4/5 606/4/5
f 612/4/5 607/4/5 611/4/5
f 614/4/5 609/4/5 608/4/5
f 615/4/5 609/4/5 614/4/5
f 616/4/5 613/4/5 612/4/5
f 617/4/5 613/4/5 616/4/5
f 626/4/5 619/4/5 618/4/5
f 627/4/5 619/4/5 626/4/5
f 628/3/5 621/3/5 620/3/5
f 629/3/5 621/3/5 628/3/5
f 630/3/5 623/3/5 622/3/5
f 631/3/5 623/3/5 630/3/5
f 632/4/5 625/4/5 624/4/5
f 633/4/5 625/4/5 632/4/5
f 636/4/5 635/4/5 634/4/5
f 637/4/5 635/4/5 636/4/5
f 638/4/6 639/4/6 640/4/6
f 640/4/6 639/4/6 641/4/6
f 641/4/6 642/4/6 645/4/6
f 645/4/6 642/4/6 646/4/6
f 643/4/6 644/4/6 647/4/6
f 647/4/6 644/4/6 648/4/6
f 646/4/6 647/4/6 649/4/6
f 649/4/6 647/4/6 650/4/6
f 651/4/6 652/4/6 657/4/6
f 657/4/6 652/4/6 658/4/6
f 653/4/6 654/4/6 659/4/6
f 659/4/6 654/4/6 660/4/6
f 655/4/6 656/4/6 661/4/6
f 661/4/6 656/4/6 662/4/6
f 663/4/6 664/4/6 665/4/6
f 665/4/6 664/4/6 666/4/6
f 667/4/6 668/4/6 669/4/6
f 669/4/6 668/4/6 670/4/6
f 673/4/6 674/4/6 675/4/6
f 675/4/6 674/4/6 676/4/6
f 675/5/6 676/5/6 677/5/6
f 676/4/6 674/4/6 678/4/6
f 677/5/6 676/5/6 678/5/6
f 671/4/6 672/4/6 679/4/6
f 679/4/6 672/4/6 680/4/6
f 677/4/6 678/4/6 681/4/6
f 678/4/6 674/4/6 682/4/6
f 681/4/6 678/4/6 682/4/6
f 683/4/6 684/4/6 687/4/6
f 687/4/6 684/4/6 688/4/6
f 685/4/6 686/4/6 689/4/6
f 689/4/6 686/4/6 690/4/6
f 691/4/6 692/4/6 699/4/6
f 699/4/6 692/4/6 700/4/6
f 693/3/6 694/3/6 701/3/6
f 701/3/6 694/3/6 702/3/6
f 695/3/6 696/3/6 703/3/6
f 703/3/6 696/3/6 704/3/6
f 697/4/6 698/4/6 705/4/6
f 705/4/6 698/4/6 706/4/6
f 707/4/6 708/4/6 709/4/6
f 709/4/6 708/4/6 710/4/6
f 711/4/6 712/4/6 715/4/6
f 715/4/6 712/4/6 716/4/6
f 713/4/6 714/4/6 717/4/6
f 717/4/6 714/4/6 718/4/6
f 716/3/6 717/3/6 719/3/6
f 719/3/6 717/3/6 720/3/6
f 721/4/6 722/4/6 723/4/6
f 723/4/6 722/4/6 724/4/6
f 727/4/6 728/4/6 729/4/6
f 729/4/6 728/4/6 730/4/6
f 725/4/6 726/4/6 731/4/6
f 729/5/6 730/5/6 734/5/6
f 731/4/6 732/4/6 735/4/6
f 725/4/6 731/4/6 735/4/6
f 735/4/6 732/4/6 736/4/6
f 733/5/6 734/5/6 737/5/6
f 734/5/6 730/5/6 738/5/6
f 737/5/6 734/5/6 738/5/6
f 736/4/6 732/4/6 739/4/6
f 739/4/6 732/4/6 740/4/6
f 737/4/6 738/4/6 741/4/6
f 741/4/6 738/4/6 742/4/6
f 743/4/6 744/4/6 747/4/6
f 747/4/6 744/4/6 748/4/6
f 748/4/6 744/4/6 749/4/6
f 749/4/6 744/4/6 750/4/6
f 745/4/6 746/4/6 751/4/6
f 751/4/6 746/4/6 752/4/6
f 749/5/6 750/5/6 753/5/6
f 750/1/6 751/1/6 753/1/6
f 751/5/6 752/5/6 754/5/6
f 753/1/6 751/1/6 754/1/6
f 747/5/6 748/5/6 755/5/6
f 748/4/6 749/4/6 756/4/6
f 755/5/6 748/5/6 756/5/6
f 754/5/6 752/5/6 757/5/6
f 753/5/6 754/5/6 757/5/6
f 752/4/6 746/4/6 758/4/6
f 757/5/6 752/5/6 758/5/6
f 758/4/6 746/4/6 759/4/6
f 753/5/6 757/5/6 760/5/6
f 756/4/6 749/4/6 760/4/6
f 749/5/6 753/5/6 760/5/6
f 757/4/6 758/4/6 761/4/6
f 760/5/6 757/5/6 761/5/6
f 756/4/6 760/4/6 762/4/6
f 760/4/6 761/4/6 762/4/6
f 761/4/6 758/4/6 763/4/6
f 762/4/6 761/4/6 763/4/6
