# MagicaVoxel @ Ephtracy

# group
o 

# material
mtllib doctor-3.mtl
usemtl palette

# normals
vn -1 0 0
vn 1 0 0
vn 0 0 1
vn 0 0 -1
vn 0 -1 0
vn 0 1 0

# texcoords
vt 0.0292969 0.5
vt 0.958984 0.5
vt 0.962891 0.5

# verts
v -18.6 0.2 1.9
v -18.6 0.2 1.6
v -18.6 0.4 1.9
v -18.6 0.4 1.6
v -18.4 0.2 1.9
v -18.4 0.2 1.6
v -18.4 0.3 1.9
v -18.4 0.3 1.6
v -18.1 0 1.9
v -18.1 0 1.6
v -18.1 0.1 2
v -18.1 0.1 1.9
v -18.1 0.1 1.6
v -18.1 0.1 1.5
v -18.1 0.2 1.8
v -18.1 0.2 1.7
v -18.1 0.3 1.8
v -18.1 0.3 1.7
v -18.1 0.4 2
v -18.1 0.4 1.9
v -18.1 0.4 1.6
v -18.1 0.4 1.5
v -18.1 0.5 1.9
v -18.1 0.5 1.6
v -18.5 0.2 1.9
v -18.5 0.2 1.6
v -18.5 0.3 1.9
v -18.5 0.3 1.6
v -18.2 0.2 1.9
v -18.2 0.2 1.8
v -18.2 0.2 1.7
v -18.2 0.2 1.6
v -18.2 0.3 1.8
v -18.2 0.3 1.7
v -18.2 0.4 1.9
v -18.2 0.4 1.6
v -18 0 1.9
v -18 0 1.6
v -18 0.1 2
v -18 0.1 1.9
v -18 0.1 1.6
v -18 0.1 1.5
v -18 0.4 2
v -18 0.4 1.9
v -18 0.4 1.6
v -18 0.4 1.5
v -18 0.5 1.9
v -18 0.5 1.6
v -17.6 0.1 1.9
v -17.6 0.1 1.8
v -17.6 0.2 1.9
v -17.6 0.2 1.8
v -17.6 0.3 1.9
v -17.6 0.3 1.8
v -17.6 0.4 1.9
v -17.6 0.4 1.8
v -17.5 0.1 1.8
v -17.5 0.1 1.6
v -17.5 0.2 1.9
v -17.5 0.2 1.8
v -17.5 0.2 1.7
v -17.5 0.3 1.9
v -17.5 0.3 1.8
v -17.5 0.3 1.7
v -17.5 0.4 1.8
v -17.5 0.4 1.6
v -18.1 0.1 2
v -18.1 0.4 2
v -18 0.1 2
v -18 0.4 2
v -18.6 0.2 1.9
v -18.6 0.4 1.9
v -18.5 0.2 1.9
v -18.5 0.3 1.9
v -18.4 0.2 1.9
v -18.4 0.3 1.9
v -18.2 0.2 1.9
v -18.2 0.4 1.9
v -18.1 0 1.9
v -18.1 0.1 1.9
v -18.1 0.4 1.9
v -18.1 0.5 1.9
v -18 0 1.9
v -18 0.1 1.9
v -18 0.4 1.9
v -18 0.5 1.9
v -17.6 0.1 1.9
v -17.6 0.2 1.9
v -17.6 0.3 1.9
v -17.6 0.4 1.9
v -17.5 0.2 1.9
v -17.5 0.3 1.9
v -18.2 0.2 1.8
v -18.2 0.3 1.8
v -18.1 0.2 1.8
v -18.1 0.3 1.8
v -17.6 0.1 1.8
v -17.6 0.2 1.8
v -17.6 0.3 1.8
v -17.6 0.4 1.8
v -17.5 0.1 1.8
v -17.5 0.2 1.8
v -17.5 0.3 1.8
v -17.5 0.4 1.8
v -18.2 0.2 1.7
v -18.2 0.3 1.7
v -18.1 0.2 1.7
v -18.1 0.3 1.7
v -18.6 0.2 1.6
v -18.6 0.4 1.6
v -18.5 0.2 1.6
v -18.5 0.3 1.6
v -18.4 0.2 1.6
v -18.4 0.3 1.6
v -18.2 0.2 1.6
v -18.2 0.4 1.6
v -18.1 0 1.6
v -18.1 0.1 1.6
v -18.1 0.4 1.6
v -18.1 0.5 1.6
v -18 0 1.6
v -18 0.1 1.6
v -18 0.4 1.6
v -18 0.5 1.6
v -17.5 0.1 1.6
v -17.5 0.4 1.6
v -18.1 0.1 1.5
v -18.1 0.4 1.5
v -18 0.1 1.5
v -18 0.4 1.5
v -18.1 0 1.9
v -18 0 1.9
v -18.1 0 1.6
v -18 0 1.6
v -18.1 0.1 2
v -18 0.1 2
v -18.1 0.1 1.9
v -18 0.1 1.9
v -17.6 0.1 1.9
v -17.6 0.1 1.8
v -17.5 0.1 1.8
v -18.1 0.1 1.6
v -18 0.1 1.6
v -17.5 0.1 1.6
v -18.1 0.1 1.5
v -18 0.1 1.5
v -18.6 0.2 1.9
v -18.5 0.2 1.9
v -18.4 0.2 1.9
v -18.2 0.2 1.9
v -17.6 0.2 1.9
v -17.5 0.2 1.9
v -18.2 0.2 1.8
v -18.1 0.2 1.8
v -17.6 0.2 1.8
v -17.5 0.2 1.8
v -18.2 0.2 1.7
v -18.1 0.2 1.7
v -18.6 0.2 1.6
v -18.5 0.2 1.6
v -18.4 0.2 1.6
v -18.2 0.2 1.6
v -18.5 0.3 1.9
v -18.4 0.3 1.9
v -18.5 0.3 1.6
v -18.4 0.3 1.6
v -17.6 0.3 1.9
v -17.5 0.3 1.9
v -18.2 0.3 1.8
v -18.1 0.3 1.8
v -17.6 0.3 1.8
v -17.5 0.3 1.8
v -18.2 0.3 1.7
v -18.1 0.3 1.7
v -18.1 0.4 2
v -18 0.4 2
v -18.6 0.4 1.9
v -18.2 0.4 1.9
v -18.1 0.4 1.9
v -18 0.4 1.9
v -17.6 0.4 1.9
v -17.6 0.4 1.8
v -17.5 0.4 1.8
v -18.6 0.4 1.6
v -18.2 0.4 1.6
v -18.1 0.4 1.6
v -18 0.4 1.6
v -17.5 0.4 1.6
v -18.1 0.4 1.5
v -18 0.4 1.5
v -18.1 0.5 1.9
v -18 0.5 1.9
v -18.1 0.5 1.6
v -18 0.5 1.6

# faces
f 3/1/1 2/1/1 1/1/1
f 4/1/1 2/1/1 3/1/1
f 7/1/1 6/1/1 5/1/1
f 8/1/1 6/1/1 7/1/1
f 12/2/1 10/2/1 9/2/1
f 13/2/1 10/2/1 12/2/1
f 15/2/1 12/2/1 11/2/1
f 15/2/1 14/2/1 13/2/1
f 15/2/1 13/2/1 12/2/1
f 16/2/1 14/2/1 15/2/1
f 17/2/1 15/2/1 11/2/1
f 18/2/1 14/2/1 16/2/1
f 19/2/1 17/2/1 11/2/1
f 19/2/1 18/2/1 17/2/1
f 20/2/1 18/2/1 19/2/1
f 21/2/1 14/2/1 18/2/1
f 21/2/1 18/2/1 20/2/1
f 22/2/1 14/2/1 21/2/1
f 23/2/1 21/2/1 20/2/1
f 24/2/1 21/2/1 23/2/1
f 25/1/2 26/1/2 27/1/2
f 27/1/2 26/1/2 28/1/2
f 29/1/2 30/1/2 33/1/2
f 31/1/2 32/1/2 34/1/2
f 29/1/2 33/1/2 35/1/2
f 33/1/2 34/1/2 35/1/2
f 34/1/2 32/1/2 36/1/2
f 35/1/2 34/1/2 36/1/2
f 37/2/2 38/2/2 40/2/2
f 40/2/2 38/2/2 41/2/2
f 39/2/2 40/2/2 43/2/2
f 43/2/2 40/2/2 44/2/2
f 41/2/2 42/2/2 45/2/2
f 45/2/2 42/2/2 46/2/2
f 44/2/2 45/2/2 47/2/2
f 47/2/2 45/2/2 48/2/2
f 49/2/2 50/2/2 51/2/2
f 51/2/2 50/2/2 52/2/2
f 53/2/2 54/2/2 55/2/2
f 55/2/2 54/2/2 56/2/2
f 57/2/2 58/2/2 60/2/2
f 60/2/2 58/2/2 61/2/2
f 59/2/2 60/2/2 62/2/2
f 60/3/2 61/3/2 63/3/2
f 62/2/2 60/2/2 63/2/2
f 61/2/2 58/2/2 64/2/2
f 63/3/2 61/3/2 64/3/2
f 63/2/2 64/2/2 65/2/2
f 64/2/2 58/2/2 66/2/2
f 65/2/2 64/2/2 66/2/2
f 69/2/3 68/2/3 67/2/3
f 70/2/3 68/2/3 69/2/3
f 73/1/3 72/1/3 71/1/3
f 74/1/3 72/1/3 73/1/3
f 76/1/3 72/1/3 74/1/3
f 77/1/3 76/1/3 75/1/3
f 78/1/3 72/1/3 76/1/3
f 78/1/3 76/1/3 77/1/3
f 83/2/3 80/2/3 79/2/3
f 84/2/3 80/2/3 83/2/3
f 85/2/3 82/2/3 81/2/3
f 86/2/3 82/2/3 85/2/3
f 87/2/3 85/2/3 84/2/3
f 88/2/3 85/2/3 87/2/3
f 89/2/3 85/2/3 88/2/3
f 90/2/3 85/2/3 89/2/3
f 91/2/3 89/2/3 88/2/3
f 92/2/3 89/2/3 91/2/3
f 95/1/3 94/1/3 93/1/3
f 96/1/3 94/1/3 95/1/3
f 101/2/3 98/2/3 97/2/3
f 102/2/3 98/2/3 101/2/3
f 103/2/3 100/2/3 99/2/3
f 104/2/3 100/2/3 103/2/3
f 105/1/4 106/1/4 107/1/4
f 107/1/4 106/1/4 108/1/4
f 109/1/4 110/1/4 111/1/4
f 111/1/4 110/1/4 112/1/4
f 112/1/4 110/1/4 114/1/4
f 113/1/4 114/1/4 115/1/4
f 114/1/4 110/1/4 116/1/4
f 115/1/4 114/1/4 116/1/4
f 117/2/4 118/2/4 121/2/4
f 121/2/4 118/2/4 122/2/4
f 119/2/4 120/2/4 123/2/4
f 123/2/4 120/2/4 124/2/4
f 122/2/4 123/2/4 125/2/4
f 125/2/4 123/2/4 126/2/4
f 127/2/4 128/2/4 129/2/4
f 129/2/4 128/2/4 130/2/4
f 133/2/5 132/2/5 131/2/5
f 134/2/5 132/2/5 133/2/5
f 137/2/5 136/2/5 135/2/5
f 138/2/5 136/2/5 137/2/5
f 140/2/5 139/2/5 138/2/5
f 143/2/5 140/2/5 138/2/5
f 143/2/5 141/2/5 140/2/5
f 144/2/5 141/2/5 143/2/5
f 145/2/5 143/2/5 142/2/5
f 146/2/5 143/2/5 145/2/5
f 153/1/5 150/1/5 149/1/5
f 155/2/5 152/2/5 151/2/5
f 156/2/5 152/2/5 155/2/5
f 157/1/5 154/1/5 153/1/5
f 157/1/5 153/1/5 149/1/5
f 158/1/5 154/1/5 157/1/5
f 159/1/5 148/1/5 147/1/5
f 160/1/5 148/1/5 159/1/5
f 161/1/5 157/1/5 149/1/5
f 162/1/5 157/1/5 161/1/5
f 165/1/5 164/1/5 163/1/5
f 166/1/5 164/1/5 165/1/5
f 167/2/6 168/2/6 171/2/6
f 171/2/6 168/2/6 172/2/6
f 169/1/6 170/1/6 173/1/6
f 173/1/6 170/1/6 174/1/6
f 175/2/6 176/2/6 179/2/6
f 179/2/6 176/2/6 180/2/6
f 180/2/6 181/2/6 182/2/6
f 177/1/6 178/1/6 184/1/6
f 184/1/6 178/1/6 185/1/6
f 182/2/6 183/2/6 187/2/6
f 180/2/6 182/2/6 187/2/6
f 187/2/6 183/2/6 188/2/6
f 186/2/6 187/2/6 189/2/6
f 189/2/6 187/2/6 190/2/6
f 191/2/6 192/2/6 193/2/6
f 193/2/6 192/2/6 194/2/6
