# MagicaVoxel @ Ephtracy

# group
o 

# material
mtllib doctor-1.mtl
usemtl palette

# normals
vn -1 0 0
vn 1 0 0
vn 0 0 1
vn 0 0 -1
vn 0 -1 0
vn 0 1 0

# texcoords
vt 0.0292969 0.5
vt 0.986328 0.5

# verts
v 19.5 0 1.9
v 19.5 0 1.6
v 19.5 0.5 1.9
v 19.5 0.5 1.6
v 19.6 0.4 1.6
v 19.6 0.4 1.5
v 19.6 0.5 1.6
v 19.6 0.5 1.5
v 19.7 0 1.8
v 19.7 0 1.7
v 19.7 0.4 1.8
v 19.7 0.4 1.7
v 19.7 0.4 1.5
v 19.7 0.4 1.4
v 19.7 0.5 1.9
v 19.7 0.5 1.8
v 19.7 0.5 1.5
v 19.7 0.5 1.4
v 19.7 0.6 1.9
v 19.7 0.6 1.8
v 19.8 0.4 1.8
v 19.8 0.4 1.7
v 19.8 0.4 1.6
v 19.8 0.5 1.8
v 19.8 0.5 1.6
v 20 0.5 1.8
v 20 0.5 1.7
v 20 0.6 1.8
v 20 0.6 1.7
v 20.3 0 1.8
v 20.3 0 1.7
v 20.3 0.2 1.8
v 20.3 0.2 1.7
v 20.5 0 1.8
v 20.5 0 1.7
v 20.5 0.4 1.7
v 20.5 0.4 1.6
v 20.5 0.5 1.8
v 20.5 0.5 1.6
v 19.6 0 1.8
v 19.6 0 1.7
v 19.6 0.4 1.7
v 19.6 0.4 1.6
v 19.6 0.5 1.8
v 19.6 0.5 1.6
v 19.8 0 1.8
v 19.8 0 1.7
v 19.8 0.2 1.8
v 19.8 0.2 1.7
v 20.1 0.5 1.8
v 20.1 0.5 1.7
v 20.1 0.6 1.8
v 20.1 0.6 1.7
v 20.3 0.4 1.8
v 20.3 0.4 1.7
v 20.3 0.4 1.6
v 20.3 0.5 1.8
v 20.3 0.5 1.6
v 20.4 0 1.8
v 20.4 0 1.7
v 20.4 0.4 1.8
v 20.4 0.4 1.7
v 20.4 0.4 1.5
v 20.4 0.4 1.4
v 20.4 0.5 1.9
v 20.4 0.5 1.8
v 20.4 0.5 1.5
v 20.4 0.5 1.4
v 20.4 0.6 1.9
v 20.4 0.6 1.8
v 20.5 0.4 1.6
v 20.5 0.4 1.5
v 20.5 0.5 1.6
v 20.5 0.5 1.5
v 20.6 0 1.9
v 20.6 0 1.6
v 20.6 0.5 1.9
v 20.6 0.5 1.6
v 19.5 0 1.9
v 19.5 0.5 1.9
v 19.7 0.5 1.9
v 19.7 0.6 1.9
v 20.4 0.5 1.9
v 20.4 0.6 1.9
v 20.6 0 1.9
v 20.6 0.5 1.9
v 19.6 0 1.7
v 19.6 0.4 1.7
v 19.7 0 1.7
v 19.7 0.4 1.7
v 19.8 0 1.7
v 19.8 0.2 1.7
v 20.3 0 1.7
v 20.3 0.2 1.7
v 20.4 0 1.7
v 20.4 0.4 1.7
v 20.5 0 1.7
v 20.5 0.4 1.7
v 19.6 0.4 1.6
v 19.6 0.5 1.6
v 19.8 0.4 1.6
v 19.8 0.5 1.6
v 20.3 0.4 1.6
v 20.3 0.5 1.6
v 20.5 0.4 1.6
v 20.5 0.5 1.6
v 19.6 0 1.8
v 19.6 0.5 1.8
v 19.7 0 1.8
v 19.7 0.4 1.8
v 19.7 0.5 1.8
v 19.7 0.6 1.8
v 19.8 0 1.8
v 19.8 0.2 1.8
v 19.8 0.4 1.8
v 19.8 0.5 1.8
v 20 0.5 1.8
v 20 0.6 1.8
v 20.1 0.5 1.8
v 20.1 0.6 1.8
v 20.3 0 1.8
v 20.3 0.2 1.8
v 20.3 0.4 1.8
v 20.3 0.5 1.8
v 20.4 0 1.8
v 20.4 0.4 1.8
v 20.4 0.5 1.8
v 20.4 0.6 1.8
v 20.5 0 1.8
v 20.5 0.5 1.8
v 20 0.5 1.7
v 20 0.6 1.7
v 20.1 0.5 1.7
v 20.1 0.6 1.7
v 19.5 0 1.6
v 19.5 0.5 1.6
v 19.6 0.4 1.6
v 19.6 0.5 1.6
v 20.5 0.4 1.6
v 20.5 0.5 1.6
v 20.6 0 1.6
v 20.6 0.5 1.6
v 19.6 0.4 1.5
v 19.6 0.5 1.5
v 19.7 0.4 1.5
v 19.7 0.5 1.5
v 20.4 0.4 1.5
v 20.4 0.5 1.5
v 20.5 0.4 1.5
v 20.5 0.5 1.5
v 19.7 0.4 1.4
v 19.7 0.5 1.4
v 20.4 0.4 1.4
v 20.4 0.5 1.4
v 19.5 0 1.9
v 20.6 0 1.9
v 19.6 0 1.8
v 19.7 0 1.8
v 19.8 0 1.8
v 20.3 0 1.8
v 20.4 0 1.8
v 20.5 0 1.8
v 19.6 0 1.7
v 19.7 0 1.7
v 19.8 0 1.7
v 20.3 0 1.7
v 20.4 0 1.7
v 20.5 0 1.7
v 19.5 0 1.6
v 20.6 0 1.6
v 19.8 0.2 1.8
v 20.3 0.2 1.8
v 19.8 0.2 1.7
v 20.3 0.2 1.7
v 19.6 0.4 1.6
v 20.5 0.4 1.6
v 19.6 0.4 1.5
v 19.7 0.4 1.5
v 20.4 0.4 1.5
v 20.5 0.4 1.5
v 19.7 0.4 1.4
v 20.4 0.4 1.4
v 19.7 0.4 1.8
v 19.8 0.4 1.8
v 20.3 0.4 1.8
v 20.4 0.4 1.8
v 19.6 0.4 1.7
v 19.7 0.4 1.7
v 19.8 0.4 1.7
v 20.3 0.4 1.7
v 20.4 0.4 1.7
v 20.5 0.4 1.7
v 19.6 0.4 1.6
v 19.8 0.4 1.6
v 20.3 0.4 1.6
v 20.5 0.4 1.6
v 19.5 0.5 1.9
v 19.7 0.5 1.9
v 20.4 0.5 1.9
v 20.6 0.5 1.9
v 19.6 0.5 1.8
v 19.7 0.5 1.8
v 19.8 0.5 1.8
v 20 0.5 1.8
v 20.1 0.5 1.8
v 20.3 0.5 1.8
v 20.4 0.5 1.8
v 20.5 0.5 1.8
v 20 0.5 1.7
v 20.1 0.5 1.7
v 19.5 0.5 1.6
v 19.6 0.5 1.6
v 19.8 0.5 1.6
v 20.3 0.5 1.6
v 20.5 0.5 1.6
v 20.6 0.5 1.6
v 19.6 0.5 1.5
v 19.7 0.5 1.5
v 20.4 0.5 1.5
v 20.5 0.5 1.5
v 19.7 0.5 1.4
v 20.4 0.5 1.4
v 19.7 0.6 1.9
v 20.4 0.6 1.9
v 19.7 0.6 1.8
v 20 0.6 1.8
v 20.1 0.6 1.8
v 20.4 0.6 1.8
v 20 0.6 1.7
v 20.1 0.6 1.7

# faces
f 3/2/1 2/2/1 1/2/1
f 4/2/1 2/2/1 3/2/1
f 7/2/1 6/2/1 5/2/1
f 8/2/1 6/2/1 7/2/1
f 11/1/1 10/1/1 9/1/1
f 12/1/1 10/1/1 11/1/1
f 17/2/1 14/2/1 13/2/1
f 18/2/1 14/2/1 17/2/1
f 19/2/1 16/2/1 15/2/1
f 20/2/1 16/2/1 19/2/1
f 24/1/1 22/1/1 21/1/1
f 24/1/1 23/1/1 22/1/1
f 25/1/1 23/1/1 24/1/1
f 28/1/1 27/1/1 26/1/1
f 29/1/1 27/1/1 28/1/1
f 32/1/1 31/1/1 30/1/1
f 33/1/1 31/1/1 32/1/1
f 36/2/1 35/2/1 34/2/1
f 38/2/1 36/2/1 34/2/1
f 38/2/1 37/2/1 36/2/1
f 39/2/1 37/2/1 38/2/1
f 40/2/2 41/2/2 42/2/2
f 40/2/2 42/2/2 44/2/2
f 42/2/2 43/2/2 44/2/2
f 44/2/2 43/2/2 45/2/2
f 46/1/2 47/1/2 48/1/2
f 48/1/2 47/1/2 49/1/2
f 50/1/2 51/1/2 52/1/2
f 52/1/2 51/1/2 53/1/2
f 54/1/2 55/1/2 57/1/2
f 55/1/2 56/1/2 57/1/2
f 57/1/2 56/1/2 58/1/2
f 59/1/2 60/1/2 61/1/2
f 61/1/2 60/1/2 62/1/2
f 63/2/2 64/2/2 67/2/2
f 67/2/2 64/2/2 68/2/2
f 65/2/2 66/2/2 69/2/2
f 69/2/2 66/2/2 70/2/2
f 71/2/2 72/2/2 73/2/2
f 73/2/2 72/2/2 74/2/2
f 75/2/2 76/2/2 77/2/2
f 77/2/2 76/2/2 78/2/2
f 81/2/3 80/2/3 79/2/3
f 83/2/3 81/2/3 79/2/3
f 83/2/3 82/2/3 81/2/3
f 84/2/3 82/2/3 83/2/3
f 85/2/3 83/2/3 79/2/3
f 86/2/3 83/2/3 85/2/3
f 89/2/3 88/2/3 87/2/3
f 90/2/3 88/2/3 89/2/3
f 93/2/3 92/2/3 91/2/3
f 94/2/3 92/2/3 93/2/3
f 97/2/3 96/2/3 95/2/3
f 98/2/3 96/2/3 97/2/3
f 101/2/3 100/2/3 99/2/3
f 102/2/3 100/2/3 101/2/3
f 105/2/3 104/2/3 103/2/3
f 106/2/3 104/2/3 105/2/3
f 107/2/4 108/2/4 109/2/4
f 109/2/4 108/2/4 110/2/4
f 110/2/4 108/2/4 111/2/4
f 111/2/4 112/2/4 115/2/4
f 110/2/4 111/2/4 115/2/4
f 115/2/4 112/2/4 116/2/4
f 116/2/4 112/2/4 117/2/4
f 117/2/4 112/2/4 118/2/4
f 113/2/4 114/2/4 121/2/4
f 121/2/4 114/2/4 122/2/4
f 119/2/4 120/2/4 124/2/4
f 123/2/4 124/2/4 126/2/4
f 124/2/4 120/2/4 127/2/4
f 126/2/4 124/2/4 127/2/4
f 127/2/4 120/2/4 128/2/4
f 125/2/4 126/2/4 129/2/4
f 126/2/4 127/2/4 129/2/4
f 129/2/4 127/2/4 130/2/4
f 131/1/4 132/1/4 133/1/4
f 133/1/4 132/1/4 134/1/4
f 135/2/4 136/2/4 137/2/4
f 137/2/4 136/2/4 138/2/4
f 135/2/4 137/2/4 139/2/4
f 135/2/4 139/2/4 141/2/4
f 139/2/4 140/2/4 141/2/4
f 141/2/4 140/2/4 142/2/4
f 143/2/4 144/2/4 145/2/4
f 145/2/4 144/2/4 146/2/4
f 147/2/4 148/2/4 149/2/4
f 149/2/4 148/2/4 150/2/4
f 151/2/4 152/2/4 153/2/4
f 153/2/4 152/2/4 154/2/4
f 157/2/5 156/2/5 155/2/5
f 158/2/5 156/2/5 157/2/5
f 159/2/5 156/2/5 158/2/5
f 160/2/5 156/2/5 159/2/5
f 161/2/5 156/2/5 160/2/5
f 162/2/5 156/2/5 161/2/5
f 163/2/5 157/2/5 155/2/5
f 164/1/5 159/1/5 158/1/5
f 165/1/5 159/1/5 164/1/5
f 166/1/5 161/1/5 160/1/5
f 167/1/5 161/1/5 166/1/5
f 168/2/5 156/2/5 162/2/5
f 169/2/5 167/2/5 166/2/5
f 169/2/5 168/2/5 167/2/5
f 169/2/5 165/2/5 164/2/5
f 169/2/5 163/2/5 155/2/5
f 169/2/5 166/2/5 165/2/5
f 169/2/5 164/2/5 163/2/5
f 170/2/5 156/2/5 168/2/5
f 170/2/5 168/2/5 169/2/5
f 173/2/5 172/2/5 171/2/5
f 174/2/5 172/2/5 173/2/5
f 177/2/5 176/2/5 175/2/5
f 178/2/5 176/2/5 177/2/5
f 179/2/5 176/2/5 178/2/5
f 180/2/5 176/2/5 179/2/5
f 181/2/5 179/2/5 178/2/5
f 182/2/5 179/2/5 181/2/5
f 183/1/6 184/1/6 188/1/6
f 188/1/6 184/1/6 189/1/6
f 185/1/6 186/1/6 190/1/6
f 190/1/6 186/1/6 191/1/6
f 188/2/6 189/2/6 193/2/6
f 187/2/6 188/2/6 193/2/6
f 193/2/6 189/2/6 194/2/6
f 191/2/6 192/2/6 195/2/6
f 190/2/6 191/2/6 195/2/6
f 195/2/6 192/2/6 196/2/6
f 197/2/6 198/2/6 201/2/6
f 201/2/6 198/2/6 202/2/6
f 199/2/6 200/2/6 207/2/6
f 207/2/6 200/2/6 208/2/6
f 203/1/6 204/1/6 209/1/6
f 205/1/6 206/1/6 210/1/6
f 197/2/6 201/2/6 211/2/6
f 211/2/6 201/2/6 212/2/6
f 203/1/6 209/1/6 213/1/6
f 209/1/6 210/1/6 213/1/6
f 210/1/6 206/1/6 214/1/6
f 213/1/6 210/1/6 214/1/6
f 208/2/6 200/2/6 215/2/6
f 215/2/6 200/2/6 216/2/6
f 213/2/6 214/2/6 217/2/6
f 214/2/6 215/2/6 217/2/6
f 212/2/6 213/2/6 217/2/6
f 217/2/6 215/2/6 218/2/6
f 218/2/6 215/2/6 219/2/6
f 219/2/6 215/2/6 220/2/6
f 218/2/6 219/2/6 221/2/6
f 221/2/6 219/2/6 222/2/6
f 223/2/6 224/2/6 225/2/6
f 225/2/6 224/2/6 226/2/6
f 226/2/6 224/2/6 227/2/6
f 227/2/6 224/2/6 228/2/6
f 226/1/6 227/1/6 229/1/6
f 229/1/6 227/1/6 230/1/6
